# xmcd
#
# Track frame offsets:
#	187
#	9177
#	22875
#	33860
#	44295
#	52402
#	61770
#	75867
#	89170
#	98850
#	110300
#	122037
#	132505
#	142785
#	158200
#	171142
#	183177
#	197537
#	209955
#	221340
#	233685
#	245825
#	259267
#	271937
#
# Disc length: 3870 seconds
# Revision: 4
# Processed by: cddbd v1.5.2PL0 Copyright (c) Steve Scherf et al.
# Submitted via: dBpowerAMP V12.0
#
DISCID=490f1c18
DTITLE=Little Milton - Welcome to The Club - The Essential Chess Recordings - Disc 1
DYEAR=1994
DGENRE=Blues
TTITLE0=She Put a Spell on me
TTITLE1=Sneaking Around
TTITLE2=I'm Coming Home
TTITLE3=Lonely no More
TTITLE4=Someone to Love
TTITLE5=I Need Somebody
TTITLE6=My Song
TTITLE7=Never Too Old
TTITLE8=I Wonder Why
TTITLE9=So Mean to me
TTITLE10=Losing Hand
TTITLE11=Ain't no Big Deal on You
TTITLE12=Meddlin'
TTITLE13=Blind Man
TTITLE14=Stand by me
TTITLE15=Sacrifice
TTITLE16=Blues in The Night
TTITLE17=You're Welcome to The Club
TTITLE18=Can't Hold Back The Tears
TTITLE19=Country Style
TTITLE20=We're Gonna Make it
TTITLE21=Who's Cheating Who
TTITLE22=Without my Sweet Baby
TTITLE23=Feel so Bad
EXTD=
EXTT0=
EXTT1=
EXTT2=
EXTT3=
EXTT4=
EXTT5=
EXTT6=
EXTT7=
EXTT8=
EXTT9=
EXTT10=
EXTT11=
EXTT12=
EXTT13=
EXTT14=
EXTT15=
EXTT16=
EXTT17=
EXTT18=
EXTT19=
EXTT20=
EXTT21=
EXTT22=
EXTT23=
PLAYORDER=
